<svg width="433" height="94" viewBox="0 0 433 94" fill="none" xmlns="http://www.w3.org/2000/svg">
<rect x="2" y="5" width="88" height="85" rx="12" fill="#401595"/>
<path d="M42.5873 76.8551C42.057 77.3161 41.4712 77.5242 40.8297 77.4793C40.1883 77.4345 39.6371 77.1469 39.1761 76.6166L10.5811 43.7218C10.1201 43.1915 9.91204 42.6056 9.9569 41.9642C10.0018 41.3228 10.2893 40.7716 10.8196 40.3106C11.35 39.8496 11.9358 39.6415 12.5773 39.6864C13.2187 39.7312 13.7699 40.0188 14.2309 40.5491L42.8259 73.4439C43.2869 73.9742 43.4949 74.5601 43.4501 75.2015C43.4052 75.8429 43.1176 76.3941 42.5873 76.8551ZM51.7736 68.8697C51.0561 69.4933 50.2838 69.6444 49.4566 69.3229C48.6294 69.0014 48.0965 68.4514 47.858 67.6729L33.2232 23.0535C32.8342 21.9129 33.0608 20.9766 33.9031 20.2444C34.7141 19.5394 35.6573 19.4588 36.7326 20.0028L78.9686 40.7111C79.7645 41.0597 80.2194 41.6775 80.3332 42.5644C80.4781 43.4242 80.2231 44.1389 79.568 44.7083C79.1937 45.0337 78.7692 45.2384 78.2945 45.3224C77.8511 45.3793 77.3731 45.3019 76.8605 45.0903L36.862 25.0658L38.3126 23.8049L52.4818 66.2823C52.6513 66.7922 52.6614 67.2764 52.5121 67.7347C52.3941 68.1659 52.1479 68.5442 51.7736 68.8697ZM47.2962 57.4817L45.9746 53.1264L64.9722 36.6121L69.1012 38.5269L47.2962 57.4817Z" fill="white"/>
<path d="M113.201 53C112.532 53 111.982 52.7837 111.549 52.351C111.116 51.9183 110.9 51.3677 110.9 50.699V9.222C110.9 8.55333 111.116 8.00266 111.549 7.57C111.982 7.13733 112.532 6.921 113.201 6.921C113.87 6.921 114.42 7.13733 114.853 7.57C115.286 8.00266 115.502 8.55333 115.502 9.222V50.699C115.502 51.3677 115.286 51.9183 114.853 52.351C114.42 52.7837 113.87 53 113.201 53ZM129.622 53C128.953 53 128.403 52.7837 127.97 52.351C127.537 51.9183 127.321 51.3677 127.321 50.699V9.222C127.321 8.55333 127.537 8.00266 127.97 7.57C128.403 7.13733 128.953 6.921 129.622 6.921C130.33 6.921 130.92 7.19633 131.392 7.747L159.594 44.799V9.222C159.594 8.55333 159.81 8.00266 160.243 7.57C160.676 7.13733 161.226 6.921 161.895 6.921C162.524 6.921 163.055 7.13733 163.488 7.57C163.96 8.00266 164.196 8.55333 164.196 9.222V50.699C164.196 51.3677 163.96 51.9183 163.488 52.351C163.055 52.7837 162.524 53 161.895 53C161.58 53 161.266 52.941 160.951 52.823C160.636 52.705 160.381 52.5083 160.184 52.233L131.923 15.181V50.699C131.923 51.3677 131.687 51.9183 131.215 52.351C130.782 52.7837 130.251 53 129.622 53ZM190.756 53C189.851 53 189.202 52.6263 188.809 51.879C188.415 51.1317 188.376 50.404 188.691 49.696L206.037 8.514C206.469 7.452 207.217 6.921 208.279 6.921C209.301 6.921 210.029 7.452 210.462 8.514L227.867 49.755C228.221 50.5023 228.162 51.23 227.69 51.938C227.257 52.646 226.628 53 225.802 53C225.33 53 224.897 52.882 224.504 52.646C224.15 52.41 223.855 52.056 223.619 51.584L207.394 12.231H209.223L192.88 51.584C192.683 52.056 192.388 52.41 191.995 52.646C191.641 52.882 191.228 53 190.756 53ZM194.65 42.026L196.42 38.073H220.374L222.144 42.026H194.65ZM254.658 53C253.911 53 253.281 52.8033 252.77 52.41C252.298 51.9773 252.062 51.407 252.062 50.699V9.222C252.062 8.55333 252.278 8.00266 252.711 7.57C253.144 7.13733 253.694 6.921 254.363 6.921H268.7C271.06 6.921 273.184 7.43233 275.072 8.455C276.999 9.43833 278.514 10.7953 279.615 12.526C280.756 14.2567 281.326 16.2627 281.326 18.544C281.326 20.668 280.756 22.556 279.615 24.208C278.474 25.86 276.98 27.1187 275.131 27.984C277.766 28.692 279.89 30.0293 281.503 31.996C283.116 33.9233 283.922 36.3817 283.922 39.371C283.922 42.0457 283.312 44.4057 282.093 46.451C280.874 48.4963 279.182 50.109 277.019 51.289C274.895 52.4297 272.456 53 269.703 53H254.658ZM256.664 48.575H269.703C271.591 48.575 273.263 48.2013 274.718 47.454C276.173 46.7067 277.314 45.6447 278.14 44.268C278.966 42.8913 279.379 41.259 279.379 39.371C279.379 37.601 278.966 36.067 278.14 34.769C277.314 33.4317 276.173 32.409 274.718 31.701C273.263 30.9537 271.591 30.58 269.703 30.58H256.664V48.575ZM256.664 26.155H268.7C271.06 26.155 273.007 25.4863 274.541 24.149C276.075 22.8117 276.842 20.9433 276.842 18.544C276.842 16.184 276.075 14.3943 274.541 13.175C273.007 11.9557 271.06 11.346 268.7 11.346H256.664V26.155ZM313.232 53.59C309.81 53.59 306.664 53 303.792 51.82C300.921 50.64 298.423 48.988 296.299 46.864C294.215 44.74 292.582 42.2423 291.402 39.371C290.262 36.4997 289.691 33.353 289.691 29.931C289.691 26.5483 290.262 23.4213 291.402 20.55C292.582 17.6787 294.215 15.181 296.299 13.057C298.423 10.933 300.921 9.281 303.792 8.101C306.664 6.921 309.81 6.331 313.232 6.331C316.615 6.331 319.742 6.921 322.613 8.101C325.485 9.281 327.982 10.933 330.106 13.057C332.23 15.181 333.863 17.6787 335.003 20.55C336.183 23.4213 336.773 26.5483 336.773 29.931C336.773 33.353 336.183 36.4997 335.003 39.371C333.863 42.2423 332.23 44.74 330.106 46.864C327.982 48.988 325.485 50.64 322.613 51.82C319.742 53 316.615 53.59 313.232 53.59ZM313.232 49.224C315.946 49.224 318.464 48.752 320.784 47.808C323.105 46.8247 325.111 45.4677 326.802 43.737C328.533 41.967 329.87 39.9217 330.814 37.601C331.758 35.241 332.23 32.6843 332.23 29.931C332.23 27.217 331.758 24.6997 330.814 22.379C329.87 20.019 328.533 17.9737 326.802 16.243C325.111 14.473 323.105 13.116 320.784 12.172C318.464 11.1887 315.946 10.697 313.232 10.697C310.479 10.697 307.942 11.1887 305.621 12.172C303.301 13.116 301.275 14.473 299.544 16.243C297.853 17.9737 296.535 20.019 295.591 22.379C294.647 24.6997 294.175 27.217 294.175 29.931C294.175 32.6843 294.647 35.241 295.591 37.601C296.535 39.9217 297.853 41.967 299.544 43.737C301.275 45.4677 303.301 46.8247 305.621 47.808C307.942 48.752 310.479 49.224 313.232 49.224ZM342.96 53C342.291 53 341.76 52.8033 341.367 52.41C341.013 52.0167 340.816 51.525 340.777 50.935C340.738 50.345 340.915 49.7943 341.308 49.283L356.707 28.279L358.831 26.568L372.637 7.747C373.07 7.19633 373.66 6.921 374.407 6.921C375.036 6.921 375.528 7.13733 375.882 7.57C376.275 7.96333 376.492 8.455 376.531 9.045C376.57 9.59567 376.433 10.0873 376.118 10.52L361.604 30.226L359.598 31.878L344.612 52.292C344.179 52.764 343.629 53 342.96 53ZM374.879 53C374.564 53 374.25 52.941 373.935 52.823C373.62 52.6657 373.345 52.4493 373.109 52.174L358.418 31.819L356.589 30.462L342.252 10.52C341.898 10.048 341.741 9.53666 341.78 8.986C341.819 8.396 342.016 7.90433 342.37 7.511C342.763 7.11767 343.275 6.921 343.904 6.921C344.651 6.921 345.241 7.19633 345.674 7.747L359.539 26.922L361.191 28.043L376.531 49.283C376.885 49.755 377.042 50.286 377.003 50.876C377.003 51.466 376.806 51.9773 376.413 52.41C376.059 52.8033 375.548 53 374.879 53Z" fill="#401595"/>
<path d="M113.6 84C113.427 84 113.28 83.9467 113.16 83.84C113.053 83.72 113 83.5733 113 83.4V68.98C113 68.8067 113.053 68.6667 113.16 68.56C113.28 68.44 113.427 68.38 113.6 68.38C113.773 68.38 113.913 68.44 114.02 68.56C114.14 68.6667 114.2 68.8067 114.2 68.98V83.4C114.2 83.5733 114.14 83.72 114.02 83.84C113.913 83.9467 113.773 84 113.6 84ZM122.475 84C121.742 83.9867 121.089 83.82 120.515 83.5C119.942 83.1667 119.495 82.7133 119.175 82.14C118.855 81.5533 118.695 80.8933 118.695 80.16V70.2C118.695 70.0133 118.749 69.8667 118.855 69.76C118.975 69.64 119.122 69.58 119.295 69.58C119.482 69.58 119.629 69.64 119.735 69.76C119.855 69.8667 119.915 70.0133 119.915 70.2V80.16C119.915 80.9333 120.155 81.5667 120.635 82.06C121.115 82.54 121.735 82.78 122.495 82.78H122.935C123.122 82.78 123.269 82.84 123.375 82.96C123.495 83.0667 123.555 83.2133 123.555 83.4C123.555 83.5733 123.495 83.72 123.375 83.84C123.269 83.9467 123.122 84 122.935 84H122.475ZM117.135 74.54C116.975 74.54 116.842 74.4933 116.735 74.4C116.642 74.2933 116.595 74.16 116.595 74C116.595 73.84 116.642 73.7133 116.735 73.62C116.842 73.5133 116.975 73.46 117.135 73.46H122.555C122.715 73.46 122.842 73.5133 122.935 73.62C123.042 73.7133 123.095 73.84 123.095 74C123.095 74.16 123.042 74.2933 122.935 74.4C122.842 74.4933 122.715 74.54 122.555 74.54H117.135ZM132.921 84C132.748 84 132.601 83.9467 132.481 83.84C132.374 83.72 132.321 83.5733 132.321 83.4V73.66C132.321 73.4733 132.374 73.3267 132.481 73.22C132.601 73.1133 132.748 73.06 132.921 73.06C133.108 73.06 133.254 73.1133 133.361 73.22C133.468 73.3267 133.521 73.4733 133.521 73.66V83.4C133.521 83.5733 133.468 83.72 133.361 83.84C133.254 83.9467 133.108 84 132.921 84ZM132.901 70.76C132.648 70.76 132.428 70.6733 132.241 70.5C132.068 70.3133 131.981 70.0867 131.981 69.82C131.981 69.5133 132.074 69.2867 132.261 69.14C132.461 68.98 132.681 68.9 132.921 68.9C133.148 68.9 133.354 68.98 133.541 69.14C133.741 69.2867 133.841 69.5133 133.841 69.82C133.841 70.0867 133.748 70.3133 133.561 70.5C133.388 70.6733 133.168 70.76 132.901 70.76ZM141.247 84.12C140.553 84.12 139.827 83.9933 139.067 83.74C138.307 83.4867 137.673 83.06 137.167 82.46C137.06 82.3267 137.013 82.1867 137.027 82.04C137.053 81.88 137.14 81.7467 137.287 81.64C137.42 81.5467 137.56 81.5133 137.707 81.54C137.867 81.5667 137.993 81.64 138.087 81.76C138.473 82.2133 138.94 82.5333 139.487 82.72C140.047 82.8933 140.653 82.98 141.307 82.98C142.427 82.98 143.22 82.78 143.687 82.38C144.153 81.98 144.387 81.5133 144.387 80.98C144.387 80.46 144.133 80.0333 143.627 79.7C143.133 79.3533 142.367 79.1067 141.327 78.96C139.993 78.7733 139.007 78.4133 138.367 77.88C137.727 77.3467 137.407 76.7267 137.407 76.02C137.407 75.3533 137.573 74.7933 137.907 74.34C138.24 73.8733 138.693 73.5267 139.267 73.3C139.853 73.06 140.52 72.94 141.267 72.94C142.173 72.94 142.94 73.1067 143.567 73.44C144.193 73.76 144.7 74.1933 145.087 74.74C145.193 74.8733 145.227 75.02 145.187 75.18C145.16 75.3267 145.06 75.4467 144.887 75.54C144.753 75.6067 144.613 75.6267 144.467 75.6C144.32 75.5733 144.193 75.4933 144.087 75.36C143.753 74.9333 143.347 74.6133 142.867 74.4C142.4 74.1733 141.853 74.06 141.227 74.06C140.387 74.06 139.733 74.24 139.267 74.6C138.8 74.96 138.567 75.3933 138.567 75.9C138.567 76.2467 138.66 76.5533 138.847 76.82C139.047 77.0733 139.367 77.2933 139.807 77.48C140.247 77.6533 140.833 77.7933 141.567 77.9C142.567 78.0333 143.353 78.26 143.927 78.58C144.513 78.9 144.927 79.2733 145.167 79.7C145.42 80.1133 145.547 80.56 145.547 81.04C145.547 81.6667 145.347 82.2133 144.947 82.68C144.547 83.1467 144.02 83.5067 143.367 83.76C142.713 84 142.007 84.12 141.247 84.12ZM159.109 84.12C158.042 84.12 157.082 83.88 156.229 83.4C155.389 82.9067 154.722 82.24 154.229 81.4C153.749 80.5467 153.509 79.5933 153.509 78.54C153.509 77.4733 153.749 76.52 154.229 75.68C154.722 74.8267 155.389 74.16 156.229 73.68C157.082 73.1867 158.042 72.94 159.109 72.94C160.175 72.94 161.129 73.1867 161.969 73.68C162.809 74.16 163.469 74.8267 163.949 75.68C164.442 76.52 164.689 77.4733 164.689 78.54L164.189 79.34C164.189 80.2467 163.962 81.06 163.509 81.78C163.069 82.5 162.469 83.0733 161.709 83.5C160.949 83.9133 160.082 84.12 159.109 84.12ZM159.109 83C159.949 83 160.695 82.8067 161.349 82.42C162.015 82.02 162.535 81.4867 162.909 80.82C163.295 80.14 163.489 79.38 163.489 78.54C163.489 77.6867 163.295 76.9267 162.909 76.26C162.535 75.58 162.015 75.0467 161.349 74.66C160.695 74.26 159.949 74.06 159.109 74.06C158.282 74.06 157.535 74.26 156.869 74.66C156.202 75.0467 155.675 75.58 155.289 76.26C154.902 76.9267 154.709 77.6867 154.709 78.54C154.709 79.38 154.902 80.14 155.289 80.82C155.675 81.4867 156.202 82.02 156.869 82.42C157.535 82.8067 158.282 83 159.109 83ZM164.089 84C163.915 84 163.769 83.9467 163.649 83.84C163.542 83.72 163.489 83.5733 163.489 83.4V79.74L163.869 78.54H164.689V83.4C164.689 83.5733 164.635 83.72 164.529 83.84C164.422 83.9467 164.275 84 164.089 84ZM174.342 84C174.169 84 174.022 83.9467 173.902 83.84C173.796 83.72 173.742 83.5733 173.742 83.4V68.98C173.742 68.8067 173.796 68.6667 173.902 68.56C174.022 68.44 174.169 68.38 174.342 68.38C174.609 68.38 174.789 68.48 174.882 68.68L181.962 82.66H181.262L188.242 68.68C188.362 68.48 188.542 68.38 188.782 68.38C188.956 68.38 189.096 68.44 189.202 68.56C189.309 68.6667 189.362 68.8067 189.362 68.98V83.4C189.362 83.5733 189.309 83.72 189.202 83.84C189.096 83.9467 188.956 84 188.782 84C188.609 84 188.462 83.9467 188.342 83.84C188.222 83.72 188.162 83.5733 188.162 83.4V70.42L188.462 70.52L182.082 83.52C181.989 83.7067 181.816 83.8 181.562 83.8C181.322 83.8 181.136 83.6733 181.002 83.42L174.542 70.52L174.942 70.42V83.4C174.942 83.5733 174.882 83.72 174.762 83.84C174.656 83.9467 174.516 84 174.342 84ZM198.011 84.1C196.958 84.1 196.018 83.8667 195.191 83.4C194.378 82.92 193.738 82.26 193.271 81.42C192.804 80.58 192.571 79.62 192.571 78.54C192.571 77.4467 192.791 76.4867 193.231 75.66C193.671 74.82 194.278 74.16 195.051 73.68C195.824 73.2 196.711 72.96 197.711 72.96C198.698 72.96 199.571 73.1933 200.331 73.66C201.091 74.1133 201.684 74.7467 202.111 75.56C202.538 76.36 202.751 77.2867 202.751 78.34C202.751 78.5133 202.698 78.6533 202.591 78.76C202.484 78.8533 202.344 78.9 202.171 78.9H193.371V77.86H202.491L201.611 78.52C201.638 77.6533 201.491 76.8867 201.171 76.22C200.851 75.5533 200.391 75.0333 199.791 74.66C199.204 74.2733 198.511 74.08 197.711 74.08C196.951 74.08 196.271 74.2733 195.671 74.66C195.084 75.0333 194.618 75.5533 194.271 76.22C193.938 76.8867 193.771 77.66 193.771 78.54C193.771 79.4067 193.951 80.1733 194.311 80.84C194.671 81.5067 195.171 82.0333 195.811 82.42C196.451 82.7933 197.184 82.98 198.011 82.98C198.531 82.98 199.051 82.8933 199.571 82.72C200.104 82.5333 200.524 82.2933 200.831 82C200.938 81.8933 201.064 81.84 201.211 81.84C201.371 81.8267 201.504 81.8667 201.611 81.96C201.758 82.08 201.831 82.2133 201.831 82.36C201.844 82.5067 201.784 82.64 201.651 82.76C201.224 83.1467 200.664 83.4667 199.971 83.72C199.291 83.9733 198.638 84.1 198.011 84.1ZM209.968 84.12C208.901 84.12 207.941 83.88 207.088 83.4C206.248 82.9067 205.581 82.24 205.088 81.4C204.608 80.5467 204.368 79.5933 204.368 78.54C204.368 77.4733 204.608 76.52 205.088 75.68C205.581 74.8267 206.248 74.16 207.088 73.68C207.941 73.1867 208.901 72.94 209.968 72.94C211.035 72.94 211.988 73.1867 212.828 73.68C213.668 74.16 214.328 74.8267 214.808 75.68C215.301 76.52 215.548 77.4733 215.548 78.54L215.048 79.34C215.048 80.2467 214.821 81.06 214.368 81.78C213.928 82.5 213.328 83.0733 212.568 83.5C211.808 83.9133 210.941 84.12 209.968 84.12ZM209.968 83C210.808 83 211.555 82.8067 212.208 82.42C212.875 82.02 213.395 81.4867 213.768 80.82C214.155 80.14 214.348 79.38 214.348 78.54C214.348 77.6867 214.155 76.9267 213.768 76.26C213.395 75.58 212.875 75.0467 212.208 74.66C211.555 74.26 210.808 74.06 209.968 74.06C209.141 74.06 208.395 74.26 207.728 74.66C207.061 75.0467 206.535 75.58 206.148 76.26C205.761 76.9267 205.568 77.6867 205.568 78.54C205.568 79.38 205.761 80.14 206.148 80.82C206.535 81.4867 207.061 82.02 207.728 82.42C208.395 82.8067 209.141 83 209.968 83ZM214.948 84C214.775 84 214.628 83.9467 214.508 83.84C214.401 83.72 214.348 83.5733 214.348 83.4V79.74L214.728 78.54H215.548V83.4C215.548 83.5733 215.495 83.72 215.388 83.84C215.281 83.9467 215.135 84 214.948 84ZM220.742 84C220.236 84 219.782 83.86 219.382 83.58C218.996 83.3 218.689 82.9133 218.462 82.42C218.249 81.9267 218.142 81.3533 218.142 80.7V68.98C218.142 68.7933 218.196 68.6467 218.302 68.54C218.422 68.4333 218.569 68.38 218.742 68.38C218.929 68.38 219.076 68.4333 219.182 68.54C219.289 68.6467 219.342 68.7933 219.342 68.98V80.7C219.342 81.3133 219.469 81.82 219.722 82.22C219.989 82.6067 220.329 82.8 220.742 82.8H221.242C221.389 82.8 221.509 82.8533 221.602 82.96C221.696 83.0667 221.742 83.2133 221.742 83.4C221.742 83.5733 221.689 83.72 221.582 83.84C221.476 83.9467 221.329 84 221.142 84H220.742ZM230.592 84C230.432 84 230.292 83.9467 230.172 83.84C230.052 83.72 229.992 83.5733 229.992 83.4V68.98C229.992 68.8067 230.052 68.6667 230.172 68.56C230.292 68.44 230.432 68.38 230.592 68.38C230.766 68.38 230.906 68.44 231.012 68.56C231.132 68.6667 231.192 68.8067 231.192 68.98V76.32L238.952 68.56C239.019 68.4933 239.086 68.4467 239.152 68.42C239.232 68.3933 239.319 68.38 239.412 68.38C239.586 68.38 239.726 68.44 239.832 68.56C239.939 68.6667 239.999 68.8 240.012 68.96C240.026 69.12 239.966 69.2733 239.832 69.42L234.092 75.16L239.892 83.04C239.999 83.1867 240.039 83.34 240.012 83.5C239.986 83.6467 239.919 83.7667 239.812 83.86C239.706 83.9533 239.579 84 239.432 84C239.206 84 239.032 83.9133 238.912 83.74L233.212 76.04L231.192 78.06V83.4C231.192 83.5733 231.132 83.72 231.012 83.84C230.906 83.9467 230.766 84 230.592 84ZM243.741 84C243.568 84 243.421 83.9467 243.301 83.84C243.195 83.72 243.141 83.5733 243.141 83.4V73.66C243.141 73.4733 243.195 73.3267 243.301 73.22C243.421 73.1133 243.568 73.06 243.741 73.06C243.928 73.06 244.075 73.1133 244.181 73.22C244.288 73.3267 244.341 73.4733 244.341 73.66V83.4C244.341 83.5733 244.288 83.72 244.181 83.84C244.075 83.9467 243.928 84 243.741 84ZM243.721 70.76C243.468 70.76 243.248 70.6733 243.061 70.5C242.888 70.3133 242.801 70.0867 242.801 69.82C242.801 69.5133 242.895 69.2867 243.081 69.14C243.281 68.98 243.501 68.9 243.741 68.9C243.968 68.9 244.175 68.98 244.361 69.14C244.561 69.2867 244.661 69.5133 244.661 69.82C244.661 70.0867 244.568 70.3133 244.381 70.5C244.208 70.6733 243.988 70.76 243.721 70.76ZM252.827 84C252.094 83.9867 251.44 83.82 250.867 83.5C250.294 83.1667 249.847 82.7133 249.527 82.14C249.207 81.5533 249.047 80.8933 249.047 80.16V70.2C249.047 70.0133 249.1 69.8667 249.207 69.76C249.327 69.64 249.474 69.58 249.647 69.58C249.834 69.58 249.98 69.64 250.087 69.76C250.207 69.8667 250.267 70.0133 250.267 70.2V80.16C250.267 80.9333 250.507 81.5667 250.987 82.06C251.467 82.54 252.087 82.78 252.847 82.78H253.287C253.474 82.78 253.62 82.84 253.727 82.96C253.847 83.0667 253.907 83.2133 253.907 83.4C253.907 83.5733 253.847 83.72 253.727 83.84C253.62 83.9467 253.474 84 253.287 84H252.827ZM247.487 74.54C247.327 74.54 247.194 74.4933 247.087 74.4C246.994 74.2933 246.947 74.16 246.947 74C246.947 73.84 246.994 73.7133 247.087 73.62C247.194 73.5133 247.327 73.46 247.487 73.46H252.907C253.067 73.46 253.194 73.5133 253.287 73.62C253.394 73.7133 253.447 73.84 253.447 74C253.447 74.16 253.394 74.2933 253.287 74.4C253.194 74.4933 253.067 74.54 252.907 74.54H247.487ZM260.133 84.12C259.44 84.12 258.713 83.9933 257.953 83.74C257.193 83.4867 256.56 83.06 256.053 82.46C255.947 82.3267 255.9 82.1867 255.913 82.04C255.94 81.88 256.027 81.7467 256.173 81.64C256.307 81.5467 256.447 81.5133 256.593 81.54C256.753 81.5667 256.88 81.64 256.973 81.76C257.36 82.2133 257.827 82.5333 258.373 82.72C258.933 82.8933 259.54 82.98 260.193 82.98C261.313 82.98 262.107 82.78 262.573 82.38C263.04 81.98 263.273 81.5133 263.273 80.98C263.273 80.46 263.02 80.0333 262.513 79.7C262.02 79.3533 261.253 79.1067 260.213 78.96C258.88 78.7733 257.893 78.4133 257.253 77.88C256.613 77.3467 256.293 76.7267 256.293 76.02C256.293 75.3533 256.46 74.7933 256.793 74.34C257.127 73.8733 257.58 73.5267 258.153 73.3C258.74 73.06 259.407 72.94 260.153 72.94C261.06 72.94 261.827 73.1067 262.453 73.44C263.08 73.76 263.587 74.1933 263.973 74.74C264.08 74.8733 264.113 75.02 264.073 75.18C264.047 75.3267 263.947 75.4467 263.773 75.54C263.64 75.6067 263.5 75.6267 263.353 75.6C263.207 75.5733 263.08 75.4933 262.973 75.36C262.64 74.9333 262.233 74.6133 261.753 74.4C261.287 74.1733 260.74 74.06 260.113 74.06C259.273 74.06 258.62 74.24 258.153 74.6C257.687 74.96 257.453 75.3933 257.453 75.9C257.453 76.2467 257.547 76.5533 257.733 76.82C257.933 77.0733 258.253 77.2933 258.693 77.48C259.133 77.6533 259.72 77.7933 260.453 77.9C261.453 78.0333 262.24 78.26 262.813 78.58C263.4 78.9 263.813 79.2733 264.053 79.7C264.307 80.1133 264.433 80.56 264.433 81.04C264.433 81.6667 264.233 82.2133 263.833 82.68C263.433 83.1467 262.907 83.5067 262.253 83.76C261.6 84 260.893 84.12 260.133 84.12ZM273.795 84C273.622 84 273.475 83.9467 273.355 83.84C273.249 83.72 273.195 83.5733 273.195 83.4V68.98C273.195 68.7933 273.249 68.6467 273.355 68.54C273.475 68.4333 273.622 68.38 273.795 68.38H277.395C278.542 68.38 279.589 68.5733 280.535 68.96C281.495 69.3333 282.322 69.8733 283.015 70.58C283.722 71.2733 284.262 72.0933 284.635 73.04C285.022 73.9867 285.215 75.0333 285.215 76.18C285.215 77.3267 285.022 78.38 284.635 79.34C284.262 80.2867 283.722 81.1133 283.015 81.82C282.322 82.5133 281.495 83.0533 280.535 83.44C279.589 83.8133 278.542 84 277.395 84H273.795ZM274.395 82.92H277.395C278.689 82.92 279.829 82.6267 280.815 82.04C281.815 81.4533 282.595 80.6533 283.155 79.64C283.729 78.6267 284.015 77.4733 284.015 76.18C284.015 74.8867 283.729 73.74 283.155 72.74C282.595 71.7267 281.815 70.9267 280.815 70.34C279.829 69.7533 278.689 69.46 277.395 69.46H274.395V82.92ZM293.05 84.1C291.997 84.1 291.057 83.8667 290.23 83.4C289.417 82.92 288.777 82.26 288.31 81.42C287.843 80.58 287.61 79.62 287.61 78.54C287.61 77.4467 287.83 76.4867 288.27 75.66C288.71 74.82 289.317 74.16 290.09 73.68C290.863 73.2 291.75 72.96 292.75 72.96C293.737 72.96 294.61 73.1933 295.37 73.66C296.13 74.1133 296.723 74.7467 297.15 75.56C297.577 76.36 297.79 77.2867 297.79 78.34C297.79 78.5133 297.737 78.6533 297.63 78.76C297.523 78.8533 297.383 78.9 297.21 78.9H288.41V77.86H297.53L296.65 78.52C296.677 77.6533 296.53 76.8867 296.21 76.22C295.89 75.5533 295.43 75.0333 294.83 74.66C294.243 74.2733 293.55 74.08 292.75 74.08C291.99 74.08 291.31 74.2733 290.71 74.66C290.123 75.0333 289.657 75.5533 289.31 76.22C288.977 76.8867 288.81 77.66 288.81 78.54C288.81 79.4067 288.99 80.1733 289.35 80.84C289.71 81.5067 290.21 82.0333 290.85 82.42C291.49 82.7933 292.223 82.98 293.05 82.98C293.57 82.98 294.09 82.8933 294.61 82.72C295.143 82.5333 295.563 82.2933 295.87 82C295.977 81.8933 296.103 81.84 296.25 81.84C296.41 81.8267 296.543 81.8667 296.65 81.96C296.797 82.08 296.87 82.2133 296.87 82.36C296.883 82.5067 296.823 82.64 296.69 82.76C296.263 83.1467 295.703 83.4667 295.01 83.72C294.33 83.9733 293.677 84.1 293.05 84.1ZM302.598 84C302.091 84 301.638 83.86 301.238 83.58C300.851 83.3 300.544 82.9133 300.318 82.42C300.104 81.9267 299.998 81.3533 299.998 80.7V68.98C299.998 68.7933 300.051 68.6467 300.158 68.54C300.278 68.4333 300.424 68.38 300.598 68.38C300.784 68.38 300.931 68.4333 301.038 68.54C301.144 68.6467 301.198 68.7933 301.198 68.98V80.7C301.198 81.3133 301.324 81.82 301.578 82.22C301.844 82.6067 302.184 82.8 302.598 82.8H303.098C303.244 82.8 303.364 82.8533 303.458 82.96C303.551 83.0667 303.598 83.2133 303.598 83.4C303.598 83.5733 303.544 83.72 303.438 83.84C303.331 83.9467 303.184 84 302.998 84H302.598ZM306.788 84C306.615 84 306.468 83.9467 306.348 83.84C306.242 83.72 306.188 83.5733 306.188 83.4V73.66C306.188 73.4733 306.242 73.3267 306.348 73.22C306.468 73.1133 306.615 73.06 306.788 73.06C306.975 73.06 307.122 73.1133 307.228 73.22C307.335 73.3267 307.388 73.4733 307.388 73.66V83.4C307.388 83.5733 307.335 83.72 307.228 83.84C307.122 83.9467 306.975 84 306.788 84ZM306.768 70.76C306.515 70.76 306.295 70.6733 306.108 70.5C305.935 70.3133 305.848 70.0867 305.848 69.82C305.848 69.5133 305.942 69.2867 306.128 69.14C306.328 68.98 306.548 68.9 306.788 68.9C307.015 68.9 307.222 68.98 307.408 69.14C307.608 69.2867 307.708 69.5133 307.708 69.82C307.708 70.0867 307.615 70.3133 307.428 70.5C307.255 70.6733 307.035 70.76 306.768 70.76ZM315.154 84.02C314.9 84.02 314.714 83.88 314.594 83.6L310.034 73.84C309.98 73.6933 309.98 73.5533 310.034 73.42C310.087 73.2733 310.187 73.1667 310.334 73.1C310.48 73.0333 310.62 73.0267 310.754 73.08C310.9 73.1333 311.007 73.2333 311.074 73.38L315.554 83.06H314.814L319.214 73.36C319.28 73.2133 319.387 73.1133 319.534 73.06C319.694 73.0067 319.847 73.0133 319.994 73.08C320.14 73.1467 320.24 73.2533 320.294 73.4C320.36 73.5333 320.36 73.6733 320.294 73.82L315.794 83.6C315.66 83.88 315.447 84.02 315.154 84.02ZM326.976 84.1C325.923 84.1 324.983 83.8667 324.156 83.4C323.343 82.92 322.703 82.26 322.236 81.42C321.769 80.58 321.536 79.62 321.536 78.54C321.536 77.4467 321.756 76.4867 322.196 75.66C322.636 74.82 323.243 74.16 324.016 73.68C324.789 73.2 325.676 72.96 326.676 72.96C327.663 72.96 328.536 73.1933 329.296 73.66C330.056 74.1133 330.649 74.7467 331.076 75.56C331.503 76.36 331.716 77.2867 331.716 78.34C331.716 78.5133 331.663 78.6533 331.556 78.76C331.449 78.8533 331.309 78.9 331.136 78.9H322.336V77.86H331.456L330.576 78.52C330.603 77.6533 330.456 76.8867 330.136 76.22C329.816 75.5533 329.356 75.0333 328.756 74.66C328.169 74.2733 327.476 74.08 326.676 74.08C325.916 74.08 325.236 74.2733 324.636 74.66C324.049 75.0333 323.583 75.5533 323.236 76.22C322.903 76.8867 322.736 77.66 322.736 78.54C322.736 79.4067 322.916 80.1733 323.276 80.84C323.636 81.5067 324.136 82.0333 324.776 82.42C325.416 82.7933 326.149 82.98 326.976 82.98C327.496 82.98 328.016 82.8933 328.536 82.72C329.069 82.5333 329.489 82.2933 329.796 82C329.903 81.8933 330.029 81.84 330.176 81.84C330.336 81.8267 330.469 81.8667 330.576 81.96C330.723 82.08 330.796 82.2133 330.796 82.36C330.809 82.5067 330.749 82.64 330.616 82.76C330.189 83.1467 329.629 83.4667 328.936 83.72C328.256 83.9733 327.603 84.1 326.976 84.1ZM334.723 77.32C334.803 76.4667 335.037 75.7133 335.423 75.06C335.81 74.3933 336.31 73.8733 336.923 73.5C337.537 73.1267 338.217 72.94 338.963 72.94C339.47 72.94 339.863 73 340.143 73.12C340.423 73.24 340.53 73.4533 340.463 73.76C340.423 73.96 340.33 74.08 340.183 74.12C340.037 74.16 339.857 74.1667 339.643 74.14C339.443 74.1 339.217 74.08 338.963 74.08C338.297 74.08 337.703 74.22 337.183 74.5C336.663 74.78 336.257 75.1667 335.963 75.66C335.67 76.14 335.523 76.6933 335.523 77.32H334.723ZM334.923 84C334.75 84 334.603 83.9467 334.483 83.84C334.377 83.72 334.323 83.5733 334.323 83.4V73.66C334.323 73.4733 334.377 73.3267 334.483 73.22C334.603 73.1133 334.75 73.06 334.923 73.06C335.11 73.06 335.257 73.1133 335.363 73.22C335.47 73.3267 335.523 73.4733 335.523 73.66V83.4C335.523 83.5733 335.47 83.72 335.363 83.84C335.257 83.9467 335.11 84 334.923 84ZM344.913 88.74C344.833 88.74 344.74 88.72 344.633 88.68C344.273 88.5333 344.173 88.2867 344.333 87.94L351.053 73.38C351.213 73.0467 351.46 72.9467 351.793 73.08C352.153 73.2267 352.253 73.4733 352.093 73.82L345.373 88.38C345.253 88.62 345.1 88.74 344.913 88.74ZM347.033 83.74C346.86 83.82 346.706 83.84 346.573 83.8C346.44 83.76 346.333 83.6533 346.253 83.48L341.873 73.88C341.793 73.7067 341.773 73.5533 341.813 73.42C341.853 73.2867 341.96 73.18 342.133 73.1C342.306 73.02 342.46 73 342.593 73.04C342.726 73.08 342.833 73.1867 342.913 73.36L347.293 82.96C347.373 83.1333 347.393 83.2867 347.353 83.42C347.313 83.5533 347.206 83.66 347.033 83.74ZM364.907 84.2C364.067 84.2 363.293 84.0867 362.587 83.86C361.893 83.62 361.293 83.2867 360.787 82.86C360.28 82.42 359.88 81.9067 359.587 81.32C359.507 81.16 359.5 81.0067 359.567 80.86C359.647 80.7133 359.773 80.6133 359.947 80.56C360.093 80.5067 360.24 80.5133 360.387 80.58C360.533 80.6467 360.647 80.7533 360.727 80.9C360.967 81.3267 361.28 81.7 361.667 82.02C362.067 82.34 362.533 82.5867 363.067 82.76C363.613 82.92 364.227 83 364.907 83C365.667 83 366.32 82.8733 366.867 82.62C367.427 82.3667 367.853 81.9933 368.147 81.5C368.453 81.0067 368.607 80.4067 368.607 79.7C368.607 78.82 368.287 78.08 367.647 77.48C367.02 76.8667 366.06 76.4733 364.767 76.3C363.273 76.0867 362.107 75.6067 361.267 74.86C360.427 74.1 360.007 73.18 360.007 72.1C360.007 71.3133 360.2 70.6267 360.587 70.04C360.987 69.4533 361.54 69 362.247 68.68C362.967 68.3467 363.793 68.18 364.727 68.18C365.42 68.18 366.06 68.2933 366.647 68.52C367.233 68.7467 367.747 69.0467 368.187 69.42C368.627 69.78 368.967 70.16 369.207 70.56C369.3 70.7067 369.32 70.8667 369.267 71.04C369.227 71.2 369.12 71.3133 368.947 71.38C368.8 71.4333 368.653 71.44 368.507 71.4C368.36 71.3467 368.24 71.2533 368.147 71.12C367.96 70.84 367.72 70.5667 367.427 70.3C367.133 70.0333 366.767 69.8133 366.327 69.64C365.887 69.4667 365.353 69.38 364.727 69.38C363.633 69.38 362.773 69.6267 362.147 70.12C361.52 70.6133 361.207 71.3133 361.207 72.22C361.207 72.7 361.333 73.14 361.587 73.54C361.853 73.9267 362.267 74.26 362.827 74.54C363.387 74.82 364.1 75.0333 364.967 75.18C366.687 75.4733 367.92 76.0067 368.667 76.78C369.427 77.54 369.807 78.5133 369.807 79.7C369.807 80.3933 369.687 81.02 369.447 81.58C369.22 82.14 368.887 82.6133 368.447 83C368.02 83.3867 367.507 83.6867 366.907 83.9C366.307 84.1 365.64 84.2 364.907 84.2ZM377.738 84.1C376.684 84.1 375.744 83.8667 374.918 83.4C374.104 82.92 373.464 82.26 372.998 81.42C372.531 80.58 372.298 79.62 372.298 78.54C372.298 77.4467 372.518 76.4867 372.958 75.66C373.398 74.82 374.004 74.16 374.778 73.68C375.551 73.2 376.438 72.96 377.438 72.96C378.424 72.96 379.298 73.1933 380.058 73.66C380.818 74.1133 381.411 74.7467 381.838 75.56C382.264 76.36 382.478 77.2867 382.478 78.34C382.478 78.5133 382.424 78.6533 382.318 78.76C382.211 78.8533 382.071 78.9 381.898 78.9H373.098V77.86H382.218L381.338 78.52C381.364 77.6533 381.218 76.8867 380.898 76.22C380.578 75.5533 380.118 75.0333 379.518 74.66C378.931 74.2733 378.238 74.08 377.438 74.08C376.678 74.08 375.998 74.2733 375.398 74.66C374.811 75.0333 374.344 75.5533 373.998 76.22C373.664 76.8867 373.498 77.66 373.498 78.54C373.498 79.4067 373.678 80.1733 374.038 80.84C374.398 81.5067 374.898 82.0333 375.538 82.42C376.178 82.7933 376.911 82.98 377.738 82.98C378.258 82.98 378.778 82.8933 379.298 82.72C379.831 82.5333 380.251 82.2933 380.558 82C380.664 81.8933 380.791 81.84 380.938 81.84C381.098 81.8267 381.231 81.8667 381.338 81.96C381.484 82.08 381.558 82.2133 381.558 82.36C381.571 82.5067 381.511 82.64 381.378 82.76C380.951 83.1467 380.391 83.4667 379.698 83.72C379.018 83.9733 378.364 84.1 377.738 84.1ZM385.485 77.32C385.565 76.4667 385.798 75.7133 386.185 75.06C386.572 74.3933 387.072 73.8733 387.685 73.5C388.298 73.1267 388.978 72.94 389.725 72.94C390.232 72.94 390.625 73 390.905 73.12C391.185 73.24 391.292 73.4533 391.225 73.76C391.185 73.96 391.092 74.08 390.945 74.12C390.798 74.16 390.618 74.1667 390.405 74.14C390.205 74.1 389.978 74.08 389.725 74.08C389.058 74.08 388.465 74.22 387.945 74.5C387.425 74.78 387.018 75.1667 386.725 75.66C386.432 76.14 386.285 76.6933 386.285 77.32H385.485ZM385.685 84C385.512 84 385.365 83.9467 385.245 83.84C385.138 83.72 385.085 83.5733 385.085 83.4V73.66C385.085 73.4733 385.138 73.3267 385.245 73.22C385.365 73.1133 385.512 73.06 385.685 73.06C385.872 73.06 386.018 73.1133 386.125 73.22C386.232 73.3267 386.285 73.4733 386.285 73.66V83.4C386.285 83.5733 386.232 83.72 386.125 83.84C386.018 83.9467 385.872 84 385.685 84ZM397.615 84.02C397.361 84.02 397.175 83.88 397.055 83.6L392.495 73.84C392.441 73.6933 392.441 73.5533 392.495 73.42C392.548 73.2733 392.648 73.1667 392.795 73.1C392.941 73.0333 393.081 73.0267 393.215 73.08C393.361 73.1333 393.468 73.2333 393.535 73.38L398.015 83.06H397.275L401.675 73.36C401.741 73.2133 401.848 73.1133 401.995 73.06C402.155 73.0067 402.308 73.0133 402.455 73.08C402.601 73.1467 402.701 73.2533 402.755 73.4C402.821 73.5333 402.821 73.6733 402.755 73.82L398.255 83.6C398.121 83.88 397.908 84.02 397.615 84.02ZM405.988 84C405.814 84 405.668 83.9467 405.548 83.84C405.441 83.72 405.388 83.5733 405.388 83.4V73.66C405.388 73.4733 405.441 73.3267 405.548 73.22C405.668 73.1133 405.814 73.06 405.988 73.06C406.174 73.06 406.321 73.1133 406.428 73.22C406.534 73.3267 406.588 73.4733 406.588 73.66V83.4C406.588 83.5733 406.534 83.72 406.428 83.84C406.321 83.9467 406.174 84 405.988 84ZM405.968 70.76C405.714 70.76 405.494 70.6733 405.308 70.5C405.134 70.3133 405.048 70.0867 405.048 69.82C405.048 69.5133 405.141 69.2867 405.328 69.14C405.528 68.98 405.748 68.9 405.988 68.9C406.214 68.9 406.421 68.98 406.608 69.14C406.808 69.2867 406.908 69.5133 406.908 69.82C406.908 70.0867 406.814 70.3133 406.628 70.5C406.454 70.6733 406.234 70.76 405.968 70.76ZM415.433 84.12C414.393 84.12 413.46 83.8733 412.633 83.38C411.82 82.8867 411.173 82.22 410.693 81.38C410.226 80.54 409.993 79.5933 409.993 78.54C409.993 77.4733 410.213 76.52 410.653 75.68C411.093 74.84 411.7 74.18 412.473 73.7C413.246 73.2067 414.133 72.96 415.133 72.96C415.986 72.96 416.766 73.1267 417.473 73.46C418.18 73.78 418.793 74.2733 419.313 74.94C419.42 75.0733 419.46 75.2133 419.433 75.36C419.406 75.5067 419.32 75.6267 419.173 75.72C419.053 75.8133 418.92 75.8533 418.773 75.84C418.626 75.8133 418.5 75.7333 418.393 75.6C417.54 74.5867 416.453 74.08 415.133 74.08C414.346 74.08 413.653 74.2733 413.053 74.66C412.466 75.0467 412.006 75.5733 411.673 76.24C411.353 76.9067 411.193 77.6733 411.193 78.54C411.193 79.38 411.373 80.14 411.733 80.82C412.093 81.4867 412.586 82.02 413.213 82.42C413.853 82.8067 414.593 83 415.433 83C415.98 83 416.493 82.92 416.973 82.76C417.466 82.6 417.893 82.3533 418.253 82.02C418.373 81.9133 418.506 81.8533 418.653 81.84C418.8 81.8267 418.926 81.8733 419.033 81.98C419.166 82.1 419.233 82.24 419.233 82.4C419.246 82.5467 419.193 82.6733 419.073 82.78C418.1 83.6733 416.886 84.12 415.433 84.12ZM427.288 84.1C426.235 84.1 425.295 83.8667 424.468 83.4C423.655 82.92 423.015 82.26 422.548 81.42C422.082 80.58 421.848 79.62 421.848 78.54C421.848 77.4467 422.068 76.4867 422.508 75.66C422.948 74.82 423.555 74.16 424.328 73.68C425.102 73.2 425.988 72.96 426.988 72.96C427.975 72.96 428.848 73.1933 429.608 73.66C430.368 74.1133 430.962 74.7467 431.388 75.56C431.815 76.36 432.028 77.2867 432.028 78.34C432.028 78.5133 431.975 78.6533 431.868 78.76C431.762 78.8533 431.622 78.9 431.448 78.9H422.648V77.86H431.768L430.888 78.52C430.915 77.6533 430.768 76.8867 430.448 76.22C430.128 75.5533 429.668 75.0333 429.068 74.66C428.482 74.2733 427.788 74.08 426.988 74.08C426.228 74.08 425.548 74.2733 424.948 74.66C424.362 75.0333 423.895 75.5533 423.548 76.22C423.215 76.8867 423.048 77.66 423.048 78.54C423.048 79.4067 423.228 80.1733 423.588 80.84C423.948 81.5067 424.448 82.0333 425.088 82.42C425.728 82.7933 426.462 82.98 427.288 82.98C427.808 82.98 428.328 82.8933 428.848 82.72C429.382 82.5333 429.802 82.2933 430.108 82C430.215 81.8933 430.342 81.84 430.488 81.84C430.648 81.8267 430.782 81.8667 430.888 81.96C431.035 82.08 431.108 82.2133 431.108 82.36C431.122 82.5067 431.062 82.64 430.928 82.76C430.502 83.1467 429.942 83.4667 429.248 83.72C428.568 83.9733 427.915 84.1 427.288 84.1Z" fill="#401595"/>
</svg>
